<?xml version="1.0" standalone="no"?>
<!DOCTYPE svg PUBLIC "-//W3C//DTD SVG 20010904//EN"
 "http://www.w3.org/TR/2001/REC-SVG-20010904/DTD/svg10.dtd">
<svg version="1.0" xmlns="http://www.w3.org/2000/svg"
 width="16.000000pt" height="16.000000pt" viewBox="0 0 16.000000 16.000000"
 preserveAspectRatio="xMidYMid meet">
<metadata>
Created by potrace 1.11, written by Peter Selinger 2001-2013
</metadata>
<g transform="translate(0.000000,16.000000) scale(0.006154,-0.006154)"
fill="#000000" stroke="none">
<path d="M0 1300 l0 -1300 1300 0 1300 0 0 1300 0 1300 -1300 0 -1300 0 0
-1300z m950 819 l25 -21 5 -331 c3 -226 8 -331 16 -334 6 -2 69 45 140 104 71
60 167 139 214 177 47 38 101 83 120 100 19 17 71 60 115 96 43 36 124 102
178 148 99 81 100 82 156 82 47 0 61 -4 84 -26 41 -38 50 -69 31 -107 -14 -29
-146 -148 -264 -237 -25 -18 -88 -70 -140 -115 -52 -44 -115 -96 -140 -115
-40 -31 -79 -64 -114 -95 -6 -5 -44 -37 -84 -69 -40 -32 -71 -64 -69 -70 2 -6
53 -51 114 -101 61 -49 131 -106 155 -126 23 -20 81 -67 128 -105 47 -37 87
-71 90 -74 3 -3 52 -43 110 -89 58 -46 121 -98 140 -115 19 -17 54 -46 78 -64
40 -32 42 -36 42 -86 0 -61 -17 -83 -74 -96 -57 -13 -114 6 -176 57 -30 25
-108 89 -174 142 -65 53 -162 132 -216 176 -54 44 -144 118 -201 164 -57 46
-120 98 -139 115 -58 53 -106 86 -113 79 -4 -3 -7 -161 -7 -349 l0 -343 -26
-20 c-48 -38 -95 -46 -148 -26 -26 10 -54 27 -62 39 -12 17 -14 137 -14 809
l0 789 29 29 c27 26 35 29 98 29 54 -1 73 -5 93 -21z"/>
</g>
</svg>
